<?xml version="1.0" encoding="UTF-8" standalone="no"?>
<svg
   xmlns:dc="http://purl.org/dc/elements/1.1/"
   xmlns:cc="http://creativecommons.org/ns#"
   xmlns:rdf="http://www.w3.org/1999/02/22-rdf-syntax-ns#"
   xmlns:svg="http://www.w3.org/2000/svg"
   xmlns="http://www.w3.org/2000/svg"
   xmlns:sodipodi="http://sodipodi.sourceforge.net/DTD/sodipodi-0.dtd"
   xmlns:inkscape="http://www.inkscape.org/namespaces/inkscape"
   width="95.165047mm"
   height="66.982208mm"
   version="1.1"
   viewBox="0 0 337.20148 237.33471"
   xml:space="preserve"
   id="svg36"
   sodipodi:docname="BDRC.svg"
   inkscape:version="0.92.4 (5da689c313, 2019-01-14)"><defs
     id="defs40" /><sodipodi:namedview
     pagecolor="#ffffff"
     bordercolor="#666666"
     borderopacity="1"
     objecttolerance="10"
     gridtolerance="10"
     guidetolerance="10"
     inkscape:pageopacity="0"
     inkscape:pageshadow="2"
     inkscape:window-width="640"
     inkscape:window-height="480"
     id="namedview38"
     showgrid="false"
     inkscape:zoom="0.78052083"
     inkscape:cx="179.12134"
     inkscape:cy="128.67263"
     inkscape:window-x="1"
     inkscape:window-y="1"
     inkscape:window-maximized="0"
     inkscape:current-layer="svg36" /><metadata
     id="metadata2"><rdf:RDF><cc:Work
         rdf:about=""><dc:format>image/svg+xml</dc:format><dc:type
           rdf:resource="http://purl.org/dc/dcmitype/StillImage" /><dc:title /></cc:Work></rdf:RDF></metadata><g
     transform="matrix(1.25,0,0,-1.25,-18.097504,258.43549)"
     id="g34"><text
   transform="scale(1,-1)"
   x="467.11182"
   y="-7922.4629"
   font-size="32px"
   letter-spacing="0px"
   word-spacing="0px"
   style="font-size:32px;line-height:125%;font-family:sans-serif;letter-spacing:0px;word-spacing:0px;fill:#000000;stroke-width:1px"
   xml:space="preserve"
   id="text6"><tspan
     x="467.11182"
     y="-7922.4629"
     id="tspan4" /></text>

<g
   transform="matrix(2.7312,0,0,2.7312,-1689.3,-1438.3)"
   id="g32"><rect
     transform="matrix(-0.70711,-0.70711,-0.70711,0.70711,0,0)"
     x="-878.37"
     y="-83.925003"
     width="5.8899999"
     height="17.434"
     id="rect8" /><rect
     transform="matrix(-0.70711,0.70711,0.70711,0.70711,0,0)"
     x="-91.324997"
     y="866.83002"
     width="5.8899999"
     height="17.434"
     id="rect10" /><rect
     transform="matrix(-0.70711,0.70711,0.70711,0.70711,0,0)"
     x="-64.888"
     y="866.83002"
     width="5.8899999"
     height="17.434"
     id="rect12" /><path
     d="m 655.53,544.83 -4.1649,4.1649 15.51,15.51 4.1649,-4.1649 z m -3.8739,-8.8688 a 9.4436,9.4436 0 0 1 13.038,-0.29596 l -4.1667,4.1667 a 3.5654,3.5654 0 0 0 -4.7146,0.28616 3.5654,3.5654 0 0 0 -0.28518,4.7136 l -4.1628,4.1628 a 9.4436,9.4436 0 0 1 0.29102,-13.033 z m 13.038,-0.29517 -4.1649,4.1648 6.4051,6.4051 4.1649,-4.1649 z"
     id="path14"
     inkscape:connector-curvature="0" /><path
     d="m 660.44,591.83 4.1648,4.1648 15.51,-15.51 -4.1648,-4.1649 z m -8.8688,3.8739 a 9.4436,9.4436 0 0 1 -0.29588,-13.038 l 4.1667,4.1666 a 3.5654,3.5654 0 0 0 0.28616,4.7147 3.5654,3.5654 0 0 0 4.7137,0.28517 l 4.1627,4.1628 a 9.4436,9.4436 0 0 1 -13.033,-0.29111 z m -0.29517,-13.038 4.1648,4.1648 6.4051,-6.4051 -4.1649,-4.1648 z"
     id="path16"
     inkscape:connector-curvature="0" /><path
     d="m 704.84,584.02 -12.701,-12.701 4.1642,-4.1642 8.5292,8.5292 9.3277,-9.3277 -9.9754,-9.9754 -17.324,17.324 -4.1642,-4.1642 17.324,-17.324 -0.003,-0.003 4.2581,-4.2581 0.003,0.003 0.008,-0.008 4.1642,4.1642 -0.008,0.008 9.9755,9.9755 0.008,-0.008 4.1642,4.1642 -13.594,13.594 0.008,0.008 z"
     id="path18"
     inkscape:connector-curvature="0" /><g
     transform="matrix(0.6251,-0.6251,0.6251,0.6251,-4123.7,-2589.7)"
     id="g26"><rect
       transform="matrix(0,-1,-1,0,0,0)"
       x="-6400.3999"
       y="-1315.3"
       width="6.6391001"
       height="21.312"
       id="rect20" /><rect
       transform="scale(1,-1)"
       x="1294"
       y="-6399.8999"
       width="6.6501999"
       height="19.722"
       id="rect22" /><rect
       transform="scale(1,-1)"
       x="1308.6"
       y="-6399.8999"
       width="6.6627002"
       height="34.321999"
       id="rect24" /></g><path
     d="m 684.49,539.43 -4.1649,-4.1649 -15.51,15.51 4.1649,4.1649 z m 8.8688,-3.874 a 9.4436,9.4436 0 0 1 0.29597,13.038 l -4.1667,-4.1667 a 3.5654,3.5654 0 0 0 -0.28616,-4.7146 3.5654,3.5654 0 0 0 -4.7136,-0.28519 l -4.1628,-4.1628 a 9.4436,9.4436 0 0 1 13.033,0.29102 z m 0.29518,13.038 -4.1648,-4.1649 -6.4051,6.4051 4.1649,4.1649 z"
     id="path28"
     inkscape:connector-curvature="0" /><path
     d="m 648.21,575.83 c -5.5595,5.5595 -14.659,5.5595 -20.219,0 -5.5595,-5.5595 -5.5617,-14.662 -0.002,-20.221 5.5498,-5.5498 14.631,-5.5581 20.193,-0.0276 l 0.006,-0.006 4.1244,4.1244 -4.0968,4.0968 -4.1244,-4.1244 0.006,-0.006 c -3.3545,-3.3237 -8.6811,-3.3154 -12.024,0.0276 -3.3527,3.3527 -3.3528,8.7012 -2e-5,12.054 3.35278,3.3528 8.7012,3.3527 12.054,0 0.0105,-0.0105 0.0192,-0.022 0.0289,-0.0331 l 13.743,-13.743 4.0836,4.0836 -13.743,13.743 -10e-4,-0.001 c -0.01,0.0109 -0.0184,0.0226 -0.0289,0.0331 z"
     style="color:#000000;text-indent:0;text-decoration:none;text-decoration-line:none;text-decoration-style:solid;text-decoration-color:#000000;text-transform:none;white-space:normal;isolation:auto;mix-blend-mode:normal;solid-color:#000000;color-rendering:auto;image-rendering:auto;shape-rendering:auto"
     id="path30"
     inkscape:connector-curvature="0" /></g></g></svg>