<?xml version="1.0" encoding="UTF-8" standalone="no"?>
<svg
   xmlns:dc="http://purl.org/dc/elements/1.1/"
   xmlns:cc="http://creativecommons.org/ns#"
   xmlns:rdf="http://www.w3.org/1999/02/22-rdf-syntax-ns#"
   xmlns:svg="http://www.w3.org/2000/svg"
   xmlns="http://www.w3.org/2000/svg"
   xmlns:sodipodi="http://sodipodi.sourceforge.net/DTD/sodipodi-0.dtd"
   xmlns:inkscape="http://www.inkscape.org/namespaces/inkscape"
   width="51.299999"
   height="54.89986"
   viewBox="0 0 51.299999 54.89986"
   version="1.1"
   id="svg12"
   sodipodi:docname="person.svg"
   inkscape:version="0.92.4 (5da689c313, 2019-01-14)">
  <metadata
     id="metadata16">
    <rdf:RDF>
      <cc:Work
         rdf:about="">
        <dc:format>image/svg+xml</dc:format>
        <dc:type
           rdf:resource="http://purl.org/dc/dcmitype/StillImage" />
      </cc:Work>
    </rdf:RDF>
  </metadata>
  <sodipodi:namedview
     pagecolor="#ffffff"
     bordercolor="#666666"
     borderopacity="1"
     objecttolerance="10"
     gridtolerance="10"
     guidetolerance="10"
     inkscape:pageopacity="0"
     inkscape:pageshadow="2"
     inkscape:window-width="640"
     inkscape:window-height="480"
     id="namedview14"
     showgrid="false"
     inkscape:zoom="4.4952381"
     inkscape:cx="29.65"
     inkscape:cy="18.65"
     inkscape:window-x="1"
     inkscape:window-y="1"
     inkscape:window-maximized="0"
     inkscape:current-layer="svg12" />
  <!-- Generator: Sketch 50.2 (55047) - http://www.bohemiancoding.com/sketch -->
  <title
     id="title2">WORKSEARCH_Person_moyen</title>
  <desc
     id="desc4">Created with Sketch.</desc>
  <defs
     id="defs6" />
  <g
     id="WORKSEARCH_Person_moyen"
     style="fill:none;fill-rule:evenodd;stroke:none;stroke-width:1"
     transform="translate(-15.85,-16.25014)">
    <g
       id="Group-19"
       transform="translate(16,17)"
       style="stroke:#343434">
      <path
         d="M 44.522843,30.97619 H 33.092565 l -1.362568,-3.921692 c -0.02408,-0.06382 -0.06091,-0.117722 -0.100564,-0.167364 3.902158,-4.272021 4.429056,-12.118242 4.49421,-13.746489 0.0014,-0.01702 0.0099,-0.0312 0.0099,-0.04822 v -2.326067 c 0,-2.9643171 -1.237926,-5.8279327 -3.399339,-7.8575681 C 30.543061,0.85220212 27.679118,-0.16757976 24.666454,0.02247695 19.037715,0.38698869 14.628489,5.260383 14.628489,11.115264 v 1.977157 c 0,0.01702 0.0071,0.0312 0.0085,0.04822 0.06515,1.628247 0.592052,9.47305 4.495626,13.745071 -0.03966,0.04964 -0.0779,0.103538 -0.100564,0.168782 L 17.670897,30.97619 H 6.4757408 C 2.9036021,30.97619 0,33.885192 0,37.459393 c 0,0.334727 0.27053073,0.605629 0.60338268,0.605629 0.33426833,0 0.60338262,-0.270902 0.60338262,-0.605629 0,-2.907584 2.3639571,-5.273364 5.2689755,-5.273364 h 0.025495 C 6.80576,36.094956 8.0380204,48.781951 11.349543,51.671096 10.447302,52.092341 9.5436443,52.483801 8.6314883,52.829875 8.3198822,52.947596 8.1640792,53.297925 8.2816397,53.609958 8.3751215,53.852493 8.6031605,54 8.8467798,54 c 0.07082,0 0.1444719,-0.01277 0.2152915,-0.03829 1.3030797,-0.494998 2.5934127,-1.086444 3.8738297,-1.72753 0.05524,-0.01702 0.104813,-0.04397 0.154387,-0.07517 2.334213,-1.180054 4.618852,-2.596969 6.831255,-4.230889 0.04249,-0.02695 0.08498,-0.05248 0.118977,-0.08652 2.413531,-1.792773 4.732163,-3.83801 6.917655,-6.114436 0.03258,-0.02128 0.04957,-0.0539 0.07648,-0.08085 0.218124,-0.225515 0.441914,-0.439683 0.654373,-0.669453 2.55092,-2.752986 4.785986,-5.71163 6.665537,-8.790832 h 10.171106 c 2.905018,0 5.268975,2.36578 5.268975,5.273364 0,0.334727 0.269114,0.605629 0.601966,0.605629 C 50.730886,38.065022 51,37.79412 51,37.459393 50.997167,33.885192 48.093565,30.97619 44.522843,30.97619 Z M 7.7136668,32.186029 H 12.01808 c 0.515566,2.734547 2.718055,13.258582 6.274613,15.442816 -1.837059,1.294939 -3.727942,2.423932 -5.649985,3.399746 C 10.212181,50.700956 8.3368789,40.114514 7.7136668,32.186029 Z M 19.430055,46.786355 C 16.860721,46.42468 14.357958,38.001197 13.247507,32.186029 h 1.873886 c 1.701086,3.222454 4.171272,5.890339 7.172605,7.71999 1.019802,0.624066 2.117505,1.121902 3.240704,1.547402 -1.941873,1.967228 -3.985725,3.750074 -6.104647,5.332934 z m 7.372317,-6.632128 c -0.114728,0.123395 -0.233705,0.235443 -0.348433,0.35742 -1.233676,-0.422663 -2.423445,-0.96163 -3.532479,-1.638175 -2.678396,-1.633921 -4.831311,-3.884816 -6.423335,-6.687443 h 1.600522 c 0.116145,0 0.218125,-0.04255 0.31019,-0.09928 0.01983,-0.01135 0.03824,-0.02269 0.05807,-0.03829 0.08498,-0.06666 0.154387,-0.151761 0.192629,-0.256718 0.0028,-0.0057 0.0085,-0.0085 0.0099,-0.01276 l 1.390896,-4.005374 c 1.38948,1.158778 3.128809,1.894893 5.319966,1.894893 2.191157,0 3.931902,-0.736115 5.319966,-1.893475 l 1.392312,4.003956 c 0.0028,0.0043 0.0071,0.0071 0.0085,0.01276 0.03966,0.104957 0.109062,0.190057 0.194045,0.256718 0.01983,0.0156 0.03824,0.02695 0.05807,0.03829 0.09348,0.05673 0.194046,0.09928 0.31019,0.09928 h 0.257783 c -1.757742,2.78277 -3.798761,5.463421 -6.11881,7.968198 z"
         id="Stroke-13"
         inkscape:connector-curvature="0"
         style="fill:#343434;stroke-width:0.30000001" />
      <path
         d="M 32.522426,2.9078206 C 30.28084,0.85270283 27.352434,-0.16635211 24.270434,0.02215179 18.510703,0.38782102 14,5.2577414 14,11.108449 v 1.975748 c 0,0.01701 0.0087,0.03118 0.01014,0.04819 0.06665,1.627086 0.912863,9.822045 4.545478,13.977635 3.228348,2.708504 9.769084,2.396693 12.839492,-0.23811 0,0 3.309491,-4.698424 4.596193,-13.739525 C 35.994204,13.115378 36,13.101205 36,13.084197 V 10.761205 C 36,7.7975835 34.733584,4.9360092 32.522426,2.9078206 Z"
         id="Stroke-17"
         inkscape:connector-curvature="0"
         style="fill:#ffffff;stroke-width:1.5" />
    </g>
  </g>
</svg>
