<?xml version="1.0" encoding="UTF-8" standalone="no"?>
<svg
   xmlns:dc="http://purl.org/dc/elements/1.1/"
   xmlns:cc="http://creativecommons.org/ns#"
   xmlns:rdf="http://www.w3.org/1999/02/22-rdf-syntax-ns#"
   xmlns:svg="http://www.w3.org/2000/svg"
   xmlns="http://www.w3.org/2000/svg"
   xmlns:xlink="http://www.w3.org/1999/xlink"
   xmlns:sodipodi="http://sodipodi.sourceforge.net/DTD/sodipodi-0.dtd"
   xmlns:inkscape="http://www.inkscape.org/namespaces/inkscape"
   width="34.64473"
   height="64.16497"
   viewBox="0 0 34.64473 64.16497"
   version="1.1"
   id="svg67"
   sodipodi:docname="place.svg"
   inkscape:version="0.92.4 (5da689c313, 2019-01-14)">
  <metadata
     id="metadata71">
    <rdf:RDF>
      <cc:Work
         rdf:about="">
        <dc:format>image/svg+xml</dc:format>
        <dc:type
           rdf:resource="http://purl.org/dc/dcmitype/StillImage" />
      </cc:Work>
    </rdf:RDF>
  </metadata>
  <sodipodi:namedview
     pagecolor="#ffffff"
     bordercolor="#666666"
     borderopacity="1"
     objecttolerance="10"
     gridtolerance="10"
     guidetolerance="10"
     inkscape:pageopacity="0"
     inkscape:pageshadow="2"
     inkscape:window-width="883"
     inkscape:window-height="834"
     id="namedview69"
     showgrid="false"
     inkscape:zoom="3.4705882"
     inkscape:cx="18.407772"
     inkscape:cy="31.86335"
     inkscape:window-x="1"
     inkscape:window-y="1"
     inkscape:window-maximized="0"
     inkscape:current-layer="svg67" />
  <!-- Generator: Sketch 50.2 (55047) - http://www.bohemiancoding.com/sketch -->
  <title
     id="title2">WORKSEARCH_Place_moyen</title>
  <desc
     id="desc4">Created with Sketch.</desc>
  <defs
     id="defs8">
    <path
       d="M 9.45,1.4697684 V 4.5447158 C 7.952,4.7520632 6.755,5.9044632 6.4806,7.4038526 4.8314,7.8975368 3.6988,9.4209053 3.6932,11.154442 V 14.22939 H 2.4724 C 2.24,14.232211 2.0398,14.3916 1.9852,14.617284 l -1.1704,4.613832 c -0.0364,0.150926 -0.0042,0.311726 0.091,0.435852 0.0966,0.124127 0.2408,0.197474 0.3976,0.198885 h 17.2928 c 0.154,-0.0014 0.3024,-0.07476 0.3962,-0.198885 0.0938,-0.124126 0.1288,-0.284926 0.0924,-0.435852 l -1.12,-4.613832 C 17.9102,14.3916 17.7086,14.232211 17.4762,14.22939 H 16.2456 V 11.154442 C 16.2386,9.4152632 15.0948,7.8890737 13.4386,7.4038526 13.1642,5.9044632 11.9672,4.7520632 10.4692,4.5447158 V 1.4697684 c 0,-0.2835158 -0.2282,-0.51343156 -0.5096,-0.51343156 -0.2814,0 -0.5096,0.22991576 -0.5096,0.51343156 z m 0.5194,4.0482105 c 1.0752,-0.00141 2.0328,0.6869264 2.38,1.7109685 h -4.76 C 7.9366,6.2049053 8.8942,5.5165684 9.9694,5.5179789 Z M 4.711,11.154442 C 4.7166,9.5549053 6.0018,8.2600421 7.5894,8.2544 h 4.7502 c 1.5918,0 2.8826,1.2962737 2.8896,2.900042 V 14.22939 H 4.711 Z m -1.862,4.09899 h 14.2408 l 0.896,3.586968 H 1.9754 Z"
       id="path-1"
       inkscape:connector-curvature="0" />
    <path
       d="M 16.1826,0.43303158 C 7.9814,0.81105263 0.4648,8.3855789 0.0896,16.645621 c -0.196,3.948063 0.9968,7.838295 3.367,10.986589 2.0146,2.610885 3.7926,5.399495 5.3088,8.33198 2.9064,6.014484 5.3088,12.264526 7.1806,18.683831 0.1218,0.445726 0.5236,0.756042 0.9828,0.756042 0.4592,0 0.861,-0.310316 0.9814,-0.756042 1.8858,-6.420716 4.3022,-12.670758 7.2212,-18.683831 1.519,-2.932485 3.297,-5.721095 5.3116,-8.33198 2.3702,-3.148294 3.5616,-7.038526 3.367,-10.986589 C 33.4628,8.3855789 25.9476,0.81105263 17.7464,0.43303158 Z M 10.577,35.05299 C 9.0048,32.003432 7.1624,29.10621 5.0722,26.392358 2.9918,23.624905 1.9432,20.2072 2.1126,16.738716 2.4486,9.4716842 9.0608,2.8097684 16.2722,2.4825263 h 1.3846 c 7.2114,0.3272421 13.8236,6.9891579 14.1498,14.2561897 0.175,3.469894 -0.8694,6.893242 -2.9498,9.663516 -2.0902,2.713852 -3.9326,5.612484 -5.5048,8.660631 -2.4934,5.125853 -4.627,10.419558 -6.3882,15.843032 C 15.204,45.478189 13.0704,40.180253 10.577,35.05299 Z"
       id="path-3"
       inkscape:connector-curvature="0" />
  </defs>
  <g
     id="Group-10"
     transform="translate(10.131501,51.08057)"
     style="fill:none;fill-rule:evenodd;stroke:#152631;stroke-width:0.80000001">
    <polygon
       id="Stroke-19"
       points="3.95542,0.88333474 11.55322,0.99335579 10.37022,5.4463874 2.77382,5.3363663 " />
    <path
       d="M 7.60984,2.3292653 8.18104,0.38414947"
       id="Stroke-20"
       inkscape:connector-curvature="0" />
    <path
       d="M 6.79574,5.4092905 6.22454,7.3558168"
       id="Stroke-21"
       inkscape:connector-curvature="0" />
    <path
       d="M 7.68306,7.2991137 H 4.68426"
       id="Stroke-22"
       inkscape:connector-curvature="0" />
    <path
       d="m 11.1447,3.2920905 h 1.9306"
       id="Stroke-23"
       inkscape:connector-curvature="0" />
    <path
       d="M 13.3609,1.9228926 12.8233,4.7735663"
       id="Stroke-24"
       inkscape:connector-curvature="0" />
    <path
       d="M 3.19522,3.1721958 1.30102,3.1087221"
       id="Stroke-25"
       inkscape:connector-curvature="0" />
    <path
       d="M 0.97762,4.4436442 1.59642,1.6663179"
       id="Stroke-26"
       inkscape:connector-curvature="0" />
  </g>
  <g
     style="fill:none;fill-rule:evenodd;stroke:none;stroke-width:1"
     transform="translate(0.33150115,2.3779182)"
     id="Group-77">
    <path
       style="stroke:#0f0f0f"
       inkscape:connector-curvature="0"
       id="Stroke-27"
       d="m 3.85896,52.32537 c -0.0042,3.304864 5.8982,5.991916 13.1838,6.004611 7.287,0.01128 13.1992,-2.658842 13.2034,-5.963705 0.0056,-3.303453 -5.8968,-5.991916 -13.1838,-6.004611 -7.287,-0.0099 -13.1978,2.658842 -13.2034,5.963705 z" />
    <path
       style="stroke:#152631"
       inkscape:connector-curvature="0"
       id="Stroke-29"
       d="m 0.65982,52.596756 c -0.007,4.785916 7.4088,8.674737 16.5634,8.690252 9.156,0.01552 16.583,-3.852147 16.59,-8.638063 0.0084,-4.784505 -7.4074,-8.674737 -16.562,-8.690252 -9.156,-0.01411 -16.5844,3.852147 -16.5914,8.638063 z" />
    <path
       style="fill:#0f0f0f"
       inkscape:connector-curvature="0"
       id="Fill-31"
       d="m 16.37832,61.065415 c -0.0322,-0.118485 -0.0588,-0.232737 -0.0938,-0.34699 0.168,0.527537 0.0364,0.115663 -0.5096,-1.589663 -0.0098,-0.04514 -0.0294,-0.09027 -0.056,-0.134 -0.0182,-0.02539 -0.0658,-0.03808 -0.1358,-0.07476 0.0294,0.204526 0.0812,0.410463 0.154,0.612169 0.084,0.255305 0.1722,0.5092 0.2548,0.764505 0.0672,0.210168 0.1288,0.418926 0.1918,0.629095 0.007,0.06771 0.0742,0.131179 0.1498,0.141052 0.0154,0.0014 0.0308,0.0014 0.0448,-0.0014" />
    <path
       style="stroke:#0f0f0f;stroke-width:0.2"
       inkscape:connector-curvature="0"
       id="Stroke-33"
       d="m 16.37832,61.065415 c -0.0322,-0.118485 -0.0588,-0.232737 -0.0938,-0.34699 0.168,0.527537 0.0364,0.115663 -0.5096,-1.589663 -0.0098,-0.04514 -0.0294,-0.09027 -0.056,-0.134 -0.0182,-0.02539 -0.0658,-0.03808 -0.1358,-0.07476 0.0294,0.204526 0.0812,0.410463 0.154,0.612169 0.084,0.255305 0.1722,0.5092 0.2548,0.764505 0.0672,0.210168 0.1288,0.418926 0.1918,0.629095 0.007,0.06771 0.0742,0.131179 0.1498,0.141052 0.0154,0.0014 0.0308,0.0014 0.0448,-0.0014 z" />
    <path
       style="fill:#0f0f0f"
       inkscape:connector-curvature="0"
       id="Fill-35"
       d="m 14.31178,60.94411 c 0.0714,-0.09874 0.1428,-0.193243 0.2058,-0.29198 -0.2968,0.464064 -0.0644,0.100148 0.9002,-1.403473 0.028,-0.03808 0.0518,-0.08181 0.0672,-0.128358 0.0084,-0.03103 -0.0126,-0.07617 -0.0294,-0.152337 -0.1372,0.149516 -0.2632,0.32019 -0.3724,0.506379 -0.1428,0.227095 -0.2814,0.4556 -0.4256,0.681284 -0.119,0.184779 -0.2408,0.366737 -0.3626,0.548695 -0.0476,0.04796 -0.0532,0.141053 -0.0126,0.207347 0.0084,0.01129 0.0182,0.02398 0.0294,0.03244" />
    <path
       style="stroke:#0f0f0f;stroke-width:0.2"
       inkscape:connector-curvature="0"
       id="Stroke-37"
       d="m 14.31178,60.94411 c 0.0714,-0.09874 0.1428,-0.193243 0.2058,-0.29198 -0.2968,0.464064 -0.0644,0.100148 0.9002,-1.403473 0.028,-0.03808 0.0518,-0.08181 0.0672,-0.128358 0.0084,-0.03103 -0.0126,-0.07617 -0.0294,-0.152337 -0.1372,0.149516 -0.2632,0.32019 -0.3724,0.506379 -0.1428,0.227095 -0.2814,0.4556 -0.4256,0.681284 -0.119,0.184779 -0.2408,0.366737 -0.3626,0.548695 -0.0476,0.04796 -0.0532,0.141053 -0.0126,0.207347 0.0084,0.01129 0.0182,0.02398 0.0294,0.03244 z" />
    <path
       style="fill:#0f0f0f"
       inkscape:connector-curvature="0"
       id="Fill-39"
       d="m 5.99256,59.215368 c 0.105,-0.06347 0.2058,-0.119894 0.3052,-0.186189 -0.4578,0.307495 -0.1008,0.0663 1.3776,-0.928126 0.0406,-0.02398 0.0784,-0.0536 0.1134,-0.09027 0.0182,-0.02539 0.0168,-0.07476 0.0336,-0.152337 -0.1876,0.08322 -0.3696,0.189011 -0.5432,0.317368 -0.2198,0.149516 -0.4382,0.304674 -0.6594,0.45419 -0.182,0.122716 -0.3654,0.23979 -0.5474,0.359684 -0.0644,0.02398 -0.105,0.10579 -0.0938,0.183369 0.0028,0.0141 0.007,0.02962 0.014,0.04231" />
    <path
       style="stroke:#0f0f0f;stroke-width:0.2"
       inkscape:connector-curvature="0"
       id="Stroke-41"
       d="m 5.99256,59.215368 c 0.105,-0.06347 0.2058,-0.119894 0.3052,-0.186189 -0.4578,0.307495 -0.1008,0.0663 1.3776,-0.928126 0.0406,-0.02398 0.0784,-0.0536 0.1134,-0.09027 0.0182,-0.02539 0.0168,-0.07476 0.0336,-0.152337 -0.1876,0.08322 -0.3696,0.189011 -0.5432,0.317368 -0.2198,0.149516 -0.4382,0.304674 -0.6594,0.45419 -0.182,0.122716 -0.3654,0.23979 -0.5474,0.359684 -0.0644,0.02398 -0.105,0.10579 -0.0938,0.183369 0.0028,0.0141 0.007,0.02962 0.014,0.04231 z" />
    <path
       style="fill:#0f0f0f"
       inkscape:connector-curvature="0"
       id="Fill-43"
       d="m 4.76826,57.798072 c 0.0672,-0.03526 0.133,-0.06771 0.1974,-0.104379 -0.2954,0.174905 -0.0644,0.03667 0.8904,-0.530358 0.0266,-0.01269 0.0504,-0.03103 0.0728,-0.05219 0.0126,-0.01411 0.0098,-0.04514 0.0196,-0.09027 -0.1218,0.04655 -0.2394,0.105789 -0.3514,0.179136 -0.1428,0.08745 -0.2828,0.174906 -0.4256,0.260948 -0.1176,0.07053 -0.2366,0.13541 -0.3556,0.203116 -0.0406,0.01411 -0.0672,0.06206 -0.0574,0.10861 0.0014,0.0085 0.0056,0.01834 0.0098,0.02539" />
    <path
       style="stroke:#0f0f0f;stroke-width:0.2"
       inkscape:connector-curvature="0"
       id="Stroke-45"
       d="m 4.76826,57.798072 c 0.0672,-0.03526 0.133,-0.06771 0.1974,-0.104379 -0.2954,0.174905 -0.0644,0.03667 0.8904,-0.530358 0.0266,-0.01269 0.0504,-0.03103 0.0728,-0.05219 0.0126,-0.01411 0.0098,-0.04514 0.0196,-0.09027 -0.1218,0.04655 -0.2394,0.105789 -0.3514,0.179136 -0.1428,0.08745 -0.2828,0.174906 -0.4256,0.260948 -0.1176,0.07053 -0.2366,0.13541 -0.3556,0.203116 -0.0406,0.01411 -0.0672,0.06206 -0.0574,0.10861 0.0014,0.0085 0.0056,0.01834 0.0098,0.02539 z" />
    <path
       style="fill:#0f0f0f"
       inkscape:connector-curvature="0"
       id="Fill-47"
       d="m 25.89328,58.607996 c -0.098,-0.07335 -0.189,-0.146695 -0.2884,-0.21299 0.4578,0.307495 0.1008,0.06629 -1.3762,-0.929537 -0.0378,-0.02821 -0.0798,-0.05219 -0.1274,-0.06911 -0.0308,-0.0085 -0.0756,0.01128 -0.1526,0.0268 0.1484,0.142463 0.315,0.270821 0.4984,0.383663 0.2226,0.146695 0.448,0.291979 0.6692,0.440084 0.182,0.122716 0.3598,0.248253 0.539,0.37379 0.0462,0.04937 0.1386,0.05642 0.2044,0.01693 0.0126,-0.0085 0.0238,-0.01834 0.0336,-0.02962" />
    <path
       style="stroke:#0f0f0f;stroke-width:0.2"
       inkscape:connector-curvature="0"
       id="Stroke-49"
       d="m 25.89328,58.607996 c -0.098,-0.07335 -0.189,-0.146695 -0.2884,-0.21299 0.4578,0.307495 0.1008,0.06629 -1.3762,-0.929537 -0.0378,-0.02821 -0.0798,-0.05219 -0.1274,-0.06911 -0.0308,-0.0085 -0.0756,0.01128 -0.1526,0.0268 0.1484,0.142463 0.315,0.270821 0.4984,0.383663 0.2226,0.146695 0.448,0.291979 0.6692,0.440084 0.182,0.122716 0.3598,0.248253 0.539,0.37379 0.0462,0.04937 0.1386,0.05642 0.2044,0.01693 0.0126,-0.0085 0.0238,-0.01834 0.0336,-0.02962 z" />
    <path
       style="fill:#0f0f0f"
       inkscape:connector-curvature="0"
       id="Fill-51"
       d="M 10.3614,47.479366 C 10.276,47.391914 10.199,47.30305 10.1136,47.21983 c 0.399,0.382252 0.0868,0.08463 -1.2012,-1.14958 -0.0308,-0.03526 -0.0686,-0.06629 -0.1134,-0.09027 -0.028,-0.01411 -0.0756,-0.0014 -0.154,0 0.1218,0.165031 0.2646,0.320189 0.4256,0.464063 0.1946,0.183368 0.392,0.362505 0.5866,0.547284 0.1582,0.152337 0.3122,0.306084 0.4676,0.459832 0.0378,0.05783 0.126,0.07899 0.1974,0.05219 0.0154,-0.0071 0.028,-0.01411 0.0392,-0.02398" />
    <path
       style="stroke:#0f0f0f;stroke-width:0.2"
       inkscape:connector-curvature="0"
       id="Stroke-53"
       d="M 10.3614,47.479366 C 10.276,47.391914 10.199,47.30305 10.1136,47.21983 c 0.399,0.382252 0.0868,0.08463 -1.2012,-1.14958 -0.0308,-0.03526 -0.0686,-0.06629 -0.1134,-0.09027 -0.028,-0.01411 -0.0756,-0.0014 -0.154,0 0.1218,0.165031 0.2646,0.320189 0.4256,0.464063 0.1946,0.183368 0.392,0.362505 0.5866,0.547284 0.1582,0.152337 0.3122,0.306084 0.4676,0.459832 0.0378,0.05783 0.126,0.07899 0.1974,0.05219 0.0154,-0.0071 0.028,-0.01411 0.0392,-0.02398 z" />
    <path
       style="fill:#0f0f0f"
       inkscape:connector-curvature="0"
       id="Fill-55"
       d="m 1.68182,51.457474 c 0.1176,0.03103 0.2296,0.06629 0.3458,0.09027 -0.5376,-0.117073 -0.1176,-0.02398 1.6198,0.354042 0.0448,0.01411 0.0938,0.01975 0.1428,0.01834 0.0322,-0.0028 0.0658,-0.03808 0.133,-0.0804 -0.1904,-0.07758 -0.392,-0.13541 -0.6034,-0.173494 -0.2618,-0.05501 -0.5236,-0.10579 -0.784,-0.1608 -0.2128,-0.04655 -0.4242,-0.09733 -0.637,-0.148106 -0.0616,-0.02821 -0.1498,-0.0014 -0.1946,0.06065 -0.0098,0.01128 -0.0182,0.02539 -0.0224,0.03949" />
    <path
       style="stroke:#0f0f0f;stroke-width:0.2"
       inkscape:connector-curvature="0"
       id="Stroke-57"
       d="m 1.68182,51.457474 c 0.1176,0.03103 0.2296,0.06629 0.3458,0.09027 -0.5376,-0.117073 -0.1176,-0.02398 1.6198,0.354042 0.0448,0.01411 0.0938,0.01975 0.1428,0.01834 0.0322,-0.0028 0.0658,-0.03808 0.133,-0.0804 -0.1904,-0.07758 -0.392,-0.13541 -0.6034,-0.173494 -0.2618,-0.05501 -0.5236,-0.10579 -0.784,-0.1608 -0.2128,-0.04655 -0.4242,-0.09733 -0.637,-0.148106 -0.0616,-0.02821 -0.1498,-0.0014 -0.1946,0.06065 -0.0098,0.01128 -0.0182,0.02539 -0.0224,0.03949 z" />
    <path
       style="fill:#0f0f0f"
       inkscape:connector-curvature="0"
       id="Fill-59"
       d="m 2.50824,48.738402 c 0.1176,0.03103 0.2296,0.06629 0.3458,0.09168 -0.5376,-0.117073 -0.1176,-0.02539 1.6198,0.352632 0.0448,0.01411 0.0938,0.01975 0.1428,0.01834 0.0322,-0.0028 0.0658,-0.03808 0.133,-0.0804 -0.1904,-0.07758 -0.392,-0.135411 -0.6034,-0.173495 -0.2618,-0.05501 -0.5236,-0.104379 -0.784,-0.1608 -0.2128,-0.04655 -0.4242,-0.09733 -0.637,-0.146695 -0.0616,-0.02962 -0.1484,-0.0014 -0.1946,0.05924 -0.0098,0.0127 -0.0182,0.02539 -0.0224,0.0395" />
    <path
       style="stroke:#0f0f0f;stroke-width:0.2"
       inkscape:connector-curvature="0"
       id="Stroke-61"
       d="m 2.50824,48.738402 c 0.1176,0.03103 0.2296,0.06629 0.3458,0.09168 -0.5376,-0.117073 -0.1176,-0.02539 1.6198,0.352632 0.0448,0.01411 0.0938,0.01975 0.1428,0.01834 0.0322,-0.0028 0.0658,-0.03808 0.133,-0.0804 -0.1904,-0.07758 -0.392,-0.135411 -0.6034,-0.173495 -0.2618,-0.05501 -0.5236,-0.104379 -0.784,-0.1608 -0.2128,-0.04655 -0.4242,-0.09733 -0.637,-0.146695 -0.0616,-0.02962 -0.1484,-0.0014 -0.1946,0.05924 -0.0098,0.0127 -0.0182,0.02539 -0.0224,0.0395 z" />
    <path
       style="fill:#0f0f0f"
       inkscape:connector-curvature="0"
       id="Fill-63"
       d="m 10.682,45.0826 c 0.049,0.112842 0.091,0.222863 0.1428,0.330063 -0.2408,-0.497916 -0.0532,-0.10861 0.7252,1.502211 0.0168,0.04373 0.042,0.08463 0.0742,0.125536 0.0224,0.02116 0.0714,0.0268 0.1442,0.0536 -0.056,-0.198885 -0.1358,-0.394948 -0.238,-0.583958 -0.1176,-0.2412 -0.2408,-0.479579 -0.357,-0.720779 -0.0966,-0.198885 -0.1862,-0.396358 -0.2786,-0.596653 -0.0168,-0.0663 -0.0924,-0.118484 -0.168,-0.117074 -0.0154,0 -0.0308,0.0028 -0.0448,0.0071" />
    <path
       style="stroke:#0f0f0f;stroke-width:0.2"
       inkscape:connector-curvature="0"
       id="Stroke-65"
       d="m 10.682,45.0826 c 0.049,0.112842 0.091,0.222863 0.1428,0.330063 -0.2408,-0.497916 -0.0532,-0.10861 0.7252,1.502211 0.0168,0.04373 0.042,0.08463 0.0742,0.125536 0.0224,0.02116 0.0714,0.0268 0.1442,0.0536 -0.056,-0.198885 -0.1358,-0.394948 -0.238,-0.583958 -0.1176,-0.2412 -0.2408,-0.479579 -0.357,-0.720779 -0.0966,-0.198885 -0.1862,-0.396358 -0.2786,-0.596653 -0.0168,-0.0663 -0.0924,-0.118484 -0.168,-0.117074 -0.0154,0 -0.0308,0.0028 -0.0448,0.0071 z" />
    <path
       style="fill:#0f0f0f"
       inkscape:connector-curvature="0"
       id="Fill-67"
       d="m 20.31246,43.798739 c -0.0686,0.102968 -0.1358,0.198884 -0.1974,0.300442 0.2842,-0.475347 0.0616,-0.102968 -0.8554,1.431684 -0.0266,0.03667 -0.049,0.0804 -0.063,0.129769 -0.007,0.03103 0.0154,0.07476 0.0336,0.152336 0.133,-0.156568 0.2534,-0.331473 0.357,-0.519073 0.1358,-0.231327 0.2674,-0.466884 0.4046,-0.6968 0.112,-0.1876 0.2296,-0.372379 0.3444,-0.558569 0.0462,-0.04937 0.049,-0.142463 0.0056,-0.207347 -0.0084,-0.01128 -0.0182,-0.02257 -0.0294,-0.03244" />
    <path
       style="stroke:#0f0f0f;stroke-width:0.2"
       inkscape:connector-curvature="0"
       id="Stroke-69"
       d="m 20.31246,43.798739 c -0.0686,0.102968 -0.1358,0.198884 -0.1974,0.300442 0.2842,-0.475347 0.0616,-0.102968 -0.8554,1.431684 -0.0266,0.03667 -0.049,0.0804 -0.063,0.129769 -0.007,0.03103 0.0154,0.07476 0.0336,0.152336 0.133,-0.156568 0.2534,-0.331473 0.357,-0.519073 0.1358,-0.231327 0.2674,-0.466884 0.4046,-0.6968 0.112,-0.1876 0.2296,-0.372379 0.3444,-0.558569 0.0462,-0.04937 0.049,-0.142463 0.0056,-0.207347 -0.0084,-0.01128 -0.0182,-0.02257 -0.0294,-0.03244 z" />
    <path
       style="fill:#0f0f0f"
       inkscape:connector-curvature="0"
       id="Fill-71"
       d="m 26.44628,44.98753 c -0.0938,0.0804 -0.1848,0.152337 -0.2716,0.232737 0.4018,-0.37661 0.0868,-0.08181 -1.2166,1.135474 -0.0364,0.02821 -0.07,0.06629 -0.0966,0.108611 -0.0168,0.0268 -0.007,0.07617 -0.0098,0.153747 0.1708,-0.111432 0.3346,-0.245432 0.4858,-0.397768 0.1932,-0.184779 0.385,-0.372379 0.581,-0.554337 0.1596,-0.149516 0.322,-0.296211 0.4844,-0.441495 0.0588,-0.03385 0.0868,-0.122716 0.063,-0.196063 -0.0042,-0.01411 -0.0112,-0.02821 -0.0196,-0.04091" />
    <path
       style="stroke:#0f0f0f;stroke-width:0.2"
       inkscape:connector-curvature="0"
       id="Stroke-73"
       d="m 26.44628,44.98753 c -0.0938,0.0804 -0.1848,0.152337 -0.2716,0.232737 0.4018,-0.37661 0.0868,-0.08181 -1.2166,1.135474 -0.0364,0.02821 -0.07,0.06629 -0.0966,0.108611 -0.0168,0.0268 -0.007,0.07617 -0.0098,0.153747 0.1708,-0.111432 0.3346,-0.245432 0.4858,-0.397768 0.1932,-0.184779 0.385,-0.372379 0.581,-0.554337 0.1596,-0.149516 0.322,-0.296211 0.4844,-0.441495 0.0588,-0.03385 0.0868,-0.122716 0.063,-0.196063 -0.0042,-0.01411 -0.0112,-0.02821 -0.0196,-0.04091 z" />
    <path
       inkscape:connector-curvature="0"
       id="Fill-75"
       d="m 28.85596,23.992269 c -2.0902,2.712443 -3.9326,5.612485 -5.5034,8.660632 -2.4934,5.124442 -4.6284,10.418147 -6.3882,15.843032 -1.7598,-5.429116 -3.8934,-10.725642 -6.3882,-15.854316 -1.5708,-3.048148 -3.4132,-5.946779 -5.5034,-8.659221 -2.0818,-2.767453 -3.1304,-6.186569 -2.9596,-9.655053 0.336,-7.2656209 6.9468,-13.92753668 14.1596,-14.25477879 h 1.3832 c 7.2128,0.32724211 13.825,6.98915789 14.1498,14.25477879 0.175,3.471305 -0.8694,6.893242 -2.9498,9.664926" />
  </g>
  <g
     style="fill:none;fill-rule:evenodd;stroke:none;stroke-width:1"
     id="Group-82"
     transform="translate(7.3315011,7.0200232)">
    <mask
       id="mask-2"
       fill="white">
      <use
         xlink:href="#path-1"
         id="use45"
         x="0"
         y="0"
         width="100%"
         height="100%" />
    </mask>
    <g
       id="Clip-79" />
    <polygon
       id="Fill-78"
       mask="url(#mask-2)"
       points="24.185,-4.1681053 -4.2854,-4.1681053 -4.2854,24.988884 24.185,24.988884 "
       style="fill:#b6b5b6" />
    <polygon
       id="Stroke-80"
       mask="url(#mask-2)"
       points="24.185,-4.1681053 -4.2854,-4.1681053 -4.2854,24.988884 24.185,24.988884 "
       style="stroke:#b6b5b6;stroke-width:0.2" />
    <polygon
       id="Stroke-81"
       mask="url(#mask-2)"
       points="358.8746,-347.54804 -499.6544,-347.54804 -499.6544,427.24842 358.8746,427.24842 "
       style="stroke:#b6b5b6;stroke-width:0.2" />
  </g>
  <path
     d="m 25.296441,21.637871 c -0.056,-0.227094 -0.2562,-0.386484 -0.4886,-0.389305 h -1.2306 v -3.074947 c -0.007,-1.737769 -1.1508,-3.265369 -2.807,-3.75059 -0.2758,-1.497979 -1.4728,-2.650379 -2.9708,-2.859136 V 8.4889452 c 0,-0.2821052 -0.2282,-0.5120209 -0.5082,-0.5120209 -0.2814,0 -0.5096,0.2299157 -0.5096,0.5120209 v 3.0749478 c -1.498,0.208757 -2.695,1.361157 -2.9694,2.859136 -1.6492,0.493685 -2.7818,2.017053 -2.7874,3.75059 v 3.074947 H 9.8040411 c -0.231,0.0028 -0.4326,0.162211 -0.4886,0.389305 l -1.169,4.612421 c -0.0378,0.150927 -0.0042,0.313137 0.091,0.437264 0.0952,0.122715 0.2408,0.196063 0.3976,0.197473 H 25.926441 c 0.1568,-0.0014 0.3024,-0.07476 0.3976,-0.197473 0.0952,-0.124127 0.1288,-0.286337 0.091,-0.437264 z m -7.9954,-9.100715 c 1.0752,-0.0014 2.0328,0.686926 2.38,1.712379 h -4.76 c 0.3472,-1.025453 1.3048,-1.71379 2.38,-1.712379 z m -5.2584,5.636463 c 0.0056,-1.598127 1.2908,-2.8944 2.8784,-2.900042 h 4.7502 c 1.5918,0 2.884,1.297684 2.8882,2.900042 v 3.074947 h -10.5168 z m -2.7369999,7.687368 0.8749999,-3.586968 h 14.2408 l 0.896,3.586968 z"
     id="Stroke-83"
     inkscape:connector-curvature="0"
     style="fill:#0f0f0f;fill-rule:evenodd;stroke:#050505;stroke-width:0.2" />
  <g
     style="fill:none;fill-rule:evenodd;stroke:none;stroke-width:1"
     id="Group-89"
     transform="translate(0.33150115,-0.03260879)">
    <mask
       id="mask-4"
       fill="white">
      <use
         xlink:href="#path-3"
         id="use54"
         x="0"
         y="0"
         width="100%"
         height="100%" />
    </mask>
    <g
       id="Clip-86" />
    <polygon
       id="Fill-85"
       mask="url(#mask-4)"
       points="38.9172,-4.6914105 -5.0176,-4.6914105 -5.0176,60.528505 38.9172,60.528505 "
       style="fill:#b6b5b6" />
    <polygon
       id="Stroke-87"
       mask="url(#mask-4)"
       points="38.9172,-4.6914105 -5.0176,-4.6914105 -5.0176,60.528505 38.9172,60.528505 "
       style="stroke:#fefefe;stroke-width:0.2" />
    <polygon
       id="Stroke-88"
       mask="url(#mask-4)"
       points="365.869,-341.87208 -492.66,-341.87208 -492.66,432.92438 365.869,432.92438 "
       style="stroke:#fefefe;stroke-width:0.2" />
  </g>
  <path
     d="m 18.079021,0.40000001 h -1.5666 C 8.3140211,0.77943161 0.79602115,8.3525472 0.42082115,16.612589 c -0.196,3.948063 0.99679995,7.838295 3.36699995,10.98659 2.0146,2.610884 3.7912,5.399495 5.3088,8.331979 2.9077999,6.015894 5.3087999,12.264526 7.1819999,18.683831 0.1204,0.445727 0.5222,0.756042 0.9814,0.756042 0.4592,0 0.861,-0.310315 0.9814,-0.756042 1.8858,-6.420715 4.3022,-12.669347 7.2226,-18.683831 1.5176,-2.932484 3.2942,-5.721095 5.3102,-8.331979 2.3702,-3.148295 3.5616,-7.038527 3.367,-10.98659 -0.3458,-8.2600418 -7.8638,-15.83315739 -16.0622,-16.21258899 z m 11.109,25.97060999 c -2.0916,2.712443 -3.9326,5.611074 -5.5048,8.659221 -2.492,5.125853 -4.627,10.419558 -6.3882,15.844443 -1.7584,-5.429116 -3.8934,-10.725643 -6.3868,-15.854316 -1.5721999,-3.048148 -3.4131999,-5.946779 -5.5033999,-8.660632 -2.0832,-2.767453 -3.1318,-6.185158 -2.9596,-9.653642 0.3346,-7.2670308 6.9468,-13.9275366 14.1595999,-14.2561892 h 1.3832 c 7.2114,0.3286526 13.8236,6.9891584 14.1498,14.2561892 0.175,3.471305 -0.8694,6.893242 -2.9498,9.664926 z"
     id="Stroke-90"
     inkscape:connector-curvature="0"
     style="fill:#152631;fill-rule:evenodd;stroke:#efefef;stroke-width:0.80000001" />
</svg>
