<?xml version="1.0" encoding="UTF-8" standalone="no"?>
<svg
   xmlns:dc="http://purl.org/dc/elements/1.1/"
   xmlns:cc="http://creativecommons.org/ns#"
   xmlns:rdf="http://www.w3.org/1999/02/22-rdf-syntax-ns#"
   xmlns:svg="http://www.w3.org/2000/svg"
   xmlns="http://www.w3.org/2000/svg"
   xmlns:sodipodi="http://sodipodi.sourceforge.net/DTD/sodipodi-0.dtd"
   xmlns:inkscape="http://www.inkscape.org/namespaces/inkscape"
   version="1.1"
   x="0px"
   y="0px"
   viewBox="0 0 311.14837 148.35239"
   enable-background="new 0 0 100 100"
   xml:space="preserve"
   id="svg10"
   sodipodi:docname="label.svg"
   width="311.14838"
   height="148.35239"
   inkscape:version="0.92.4 (5da689c313, 2019-01-14)"><metadata
   id="metadata16"><rdf:RDF><cc:Work
       rdf:about=""><dc:format>image/svg+xml</dc:format><dc:type
         rdf:resource="http://purl.org/dc/dcmitype/StillImage" /><dc:title></dc:title></cc:Work></rdf:RDF></metadata><defs
   id="defs14" /><sodipodi:namedview
   pagecolor="#ffffff"
   bordercolor="#666666"
   borderopacity="1"
   objecttolerance="10"
   gridtolerance="10"
   guidetolerance="10"
   inkscape:pageopacity="0"
   inkscape:pageshadow="2"
   inkscape:window-width="1918"
   inkscape:window-height="1054"
   id="namedview12"
   showgrid="false"
   fit-margin-top="1"
   fit-margin-left="1"
   fit-margin-right="1"
   fit-margin-bottom="1"
   inkscape:zoom="2.6700352"
   inkscape:cx="92.682066"
   inkscape:cy="69.293735"
   inkscape:window-x="1"
   inkscape:window-y="1"
   inkscape:window-maximized="1"
   inkscape:current-layer="svg10" /><path
   style="fill:#000000;fill-opacity:1;stroke:#000000;stroke-width:1.69941318;stroke-opacity:1"
   d="M 13.557196,1.8500199 C 7.4495414,2.1223734 8.9780254,10.223877 8.6427604,14.158237 7.9211354,31.275806 6.7959014,48.406166 5.8501657,65.47502 c -0.06687,9.709687 7.2403873,16.811815 13.9112703,22.804087 17.620323,17.713673 34.735193,36.008223 52.643417,53.391233 8.383404,6.81834 21.617874,6.57201 28.886257,-1.78366 13.90086,-13.89763 28.63112,-27.02962 42.08249,-41.343301 7.96256,-9.753551 3.21395,-24.079324 -5.6629,-31.484001 C 119.89313,47.447709 102.47114,27.410493 84.494697,7.9808793 74.752169,-0.5500366 61.036043,3.5299104 49.459531,2.4670395 37.492093,2.2626662 25.524603,2.047979 13.557196,1.8500199 Z M 62.61579,11.797286 c 7.388931,-1.444502 15.763445,0.663461 19.881007,7.390541 17.804183,20.075752 36.138833,39.754626 53.617043,60.074302 4.47376,6.025208 1.70573,14.085663 -4.08032,18.105214 -13.48229,12.728737 -26.31968,26.244957 -40.177495,38.515887 -8.335264,5.12306 -16.769693,-3.15621 -21.70009,-9.14831 C 52.601828,108.55811 34.508348,90.767033 17.180243,72.44377 12.272379,64.110323 17.081187,54.235897 16.185424,45.283141 c 0.574445,-11.420416 1.14889,-22.840831 1.723335,-34.261246 14.902344,0.258464 29.804688,0.516927 44.707031,0.775391 z"
   id="path2"
   inkscape:connector-curvature="0" /><path
   style="fill:#000000;fill-opacity:1;stroke:#000000;stroke-width:1.69941318;stroke-opacity:1"
   d="m 33.922431,14.865645 c -11.751735,0.06613 -19.045575,15.177949 -12.171875,24.564453 5.361168,8.911408 19.133346,9.408525 25.335937,1.173828 7.686516,-8.55637 2.070308,-23.881185 -9.34375,-25.46875 -1.257494,-0.235165 -2.542112,-0.329474 -3.820312,-0.269531 z m 1.095703,9.089844 c 7.817039,-0.133618 8.707121,12.238335 0.998047,13.361328 -7.154954,1.678837 -10.876155,-9.477801 -4.302734,-12.630859 0.995491,-0.579616 2.163946,-0.784917 3.304687,-0.730469 z"
   id="path4"
   inkscape:connector-curvature="0" />
<g
   transform="matrix(0.32801787,0,0,0.32801787,172.75414,1.2320238)"
   id="g915"
   style="fill:#000000;fill-opacity:1;stroke:#000000;stroke-width:2.30446434;stroke-miterlimit:4;stroke-dasharray:none;stroke-opacity:1"><g
     id="g913"
     style="fill:#000000;fill-opacity:1;stroke:#000000;stroke-width:2.30446434;stroke-miterlimit:4;stroke-dasharray:none;stroke-opacity:1"><path
       style="fill:#000000;fill-opacity:1;stroke:#000000;stroke-width:2.30446434;stroke-miterlimit:4;stroke-dasharray:none;stroke-opacity:1"
       d="M 214.56641,3.8964844 C 206.63051,3.5338214 200.04489,9.5128722 197.07617,16.380859 136.0064,71.71929 74.149416,126.26497 13.582031,182.10352 c -5.9708796,9.55021 4.943297,21.39594 14.938211,20.96134 25.024923,3.5618 50.488468,3.22751 75.794208,3.69686 0.2313,68.43696 -0.45974,136.90934 0.35743,205.32422 2.17714,7.70105 11.11341,10.06229 17.39843,13.17578 10.35691,1.3296 20.86716,-0.43419 31.29101,0.38176 51.66049,-0.28852 103.42539,0.68021 155.02149,-0.50871 4.87745,-2.42936 10.21384,-4.80908 14.20703,-8.51368 5.57403,-8.90476 1.44165,-19.96587 2.75196,-29.82617 0,-60.01237 0,-120.02474 0,-180.03711 27.65218,-0.84409 55.63125,0.52825 82.71093,-5.21093 8.58291,-2.9711 13.88343,-16.35137 5.32956,-22.28944 C 353.02511,124.25516 291.59236,70.252858 231.57617,14.982422 229.03871,8.1287954 221.80165,3.6118758 214.56641,3.8964844 Z m 1.60742,36.8242186 C 266.61512,86.117994 317.05761,131.51405 367.5,176.91016 c -20.79277,1.12611 -41.83983,-0.45984 -62.45898,1.63281 -10.27815,4.83789 -8.16971,18.06874 -8.77915,27.25494 -0.0996,63.57356 -0.0171,127.15299 -0.049,190.72943 -54.2513,0 -108.5026,0 -162.75391,0 -0.33603,-67.76536 0.6655,-135.5738 -0.51171,-203.3125 -0.24861,-7.06083 -4.21062,-15.6563 -12.33008,-15.24804 -15.07427,-1.06193 -30.809861,0.0667 -46.114689,-0.78693 -3.864588,-0.82174 -17.472935,2.00332 -8.693852,-3.54966 C 115.48422,128.92383 165.1614,84.219248 214.83594,39.511719 l 0.74194,0.670459 z"
       id="path911"
       inkscape:connector-curvature="0" /></g></g><g
   transform="matrix(0.32801787,0,0,0.32801787,172.75414,3.2320238)"
   id="g917"
   style="fill:#000000;fill-opacity:1;stroke:#000000;stroke-width:2.30446434;stroke-miterlimit:4;stroke-dasharray:none;stroke-opacity:1" /><g
   transform="matrix(0.32801787,0,0,0.32801787,172.75414,3.2320238)"
   id="g919"
   style="fill:#000000;fill-opacity:1;stroke:#000000;stroke-width:2.30446434;stroke-miterlimit:4;stroke-dasharray:none;stroke-opacity:1" /><g
   transform="matrix(0.32801787,0,0,0.32801787,172.75414,3.2320238)"
   id="g921"
   style="fill:#000000;fill-opacity:1;stroke:#000000;stroke-width:2.30446434;stroke-miterlimit:4;stroke-dasharray:none;stroke-opacity:1" /><g
   transform="matrix(0.32801787,0,0,0.32801787,172.75414,3.2320238)"
   id="g923"
   style="fill:#000000;fill-opacity:1;stroke:#000000;stroke-width:2.30446434;stroke-miterlimit:4;stroke-dasharray:none;stroke-opacity:1" /><g
   transform="matrix(0.32801787,0,0,0.32801787,172.75414,3.2320238)"
   id="g925"
   style="fill:#000000;fill-opacity:1;stroke:#000000;stroke-width:2.30446434;stroke-miterlimit:4;stroke-dasharray:none;stroke-opacity:1" /><g
   transform="matrix(0.32801787,0,0,0.32801787,172.75414,3.2320238)"
   id="g927"
   style="fill:#000000;fill-opacity:1;stroke:#000000;stroke-width:2.30446434;stroke-miterlimit:4;stroke-dasharray:none;stroke-opacity:1" /><g
   transform="matrix(0.32801787,0,0,0.32801787,172.75414,3.2320238)"
   id="g929"
   style="fill:#000000;fill-opacity:1;stroke:#000000;stroke-width:2.30446434;stroke-miterlimit:4;stroke-dasharray:none;stroke-opacity:1" /><g
   transform="matrix(0.32801787,0,0,0.32801787,172.75414,3.2320238)"
   id="g931"
   style="fill:#000000;fill-opacity:1;stroke:#000000;stroke-width:2.30446434;stroke-miterlimit:4;stroke-dasharray:none;stroke-opacity:1" /><g
   transform="matrix(0.32801787,0,0,0.32801787,172.75414,3.2320238)"
   id="g933"
   style="fill:#000000;fill-opacity:1;stroke:#000000;stroke-width:2.30446434;stroke-miterlimit:4;stroke-dasharray:none;stroke-opacity:1" /><g
   transform="matrix(0.32801787,0,0,0.32801787,172.75414,3.2320238)"
   id="g935"
   style="fill:#000000;fill-opacity:1;stroke:#000000;stroke-width:2.30446434;stroke-miterlimit:4;stroke-dasharray:none;stroke-opacity:1" /><g
   transform="matrix(0.32801787,0,0,0.32801787,172.75414,3.2320238)"
   id="g937"
   style="fill:#000000;fill-opacity:1;stroke:#000000;stroke-width:2.30446434;stroke-miterlimit:4;stroke-dasharray:none;stroke-opacity:1" /><g
   transform="matrix(0.32801787,0,0,0.32801787,172.75414,3.2320238)"
   id="g939"
   style="fill:#000000;fill-opacity:1;stroke:#000000;stroke-width:2.30446434;stroke-miterlimit:4;stroke-dasharray:none;stroke-opacity:1" /><g
   transform="matrix(0.32801787,0,0,0.32801787,172.75414,3.2320238)"
   id="g941"
   style="fill:#000000;fill-opacity:1;stroke:#000000;stroke-width:2.30446434;stroke-miterlimit:4;stroke-dasharray:none;stroke-opacity:1" /><g
   transform="matrix(0.32801787,0,0,0.32801787,172.75414,3.2320238)"
   id="g943"
   style="fill:#000000;fill-opacity:1;stroke:#000000;stroke-width:2.30446434;stroke-miterlimit:4;stroke-dasharray:none;stroke-opacity:1" /><g
   transform="matrix(0.32801787,0,0,0.32801787,172.75414,3.2320238)"
   id="g945"
   style="fill:#000000;fill-opacity:1;stroke:#000000;stroke-width:2.30446434;stroke-miterlimit:4;stroke-dasharray:none;stroke-opacity:1" /></svg>